<svg xmlns="http://www.w3.org/2000/svg" viewBox="0 0 117.47 104.71"><defs><style>.cls-1{fill:#fff;}</style></defs><title>Asset 10</title><g id="Layer_2" data-name="Layer 2"><g id="Layer_1-2" data-name="Layer 1"><path class="cls-1" d="M78.82,36.31c-.29-1.68-.79-3.74-1.59-6.67l-.06-.24c-2-7.56-2.61-10.84-2-14.95.85-5.84,4.57-10.2,11.45-13,9.89-3.95,18.33.16,23.94,9.83,4.41,7.61,6.93,18.51,6.93,28.5S115,60.7,110.54,68.31C104.93,78,96.49,82.09,86.6,78.14,79.72,75.38,76,71,75.15,65.18c-.59-4.1,0-7.39,2-15l.06-.24c.8-2.93,1.3-5,1.59-6.67H71.88a3.5,3.5,0,0,0-3.5,3.5V103a1.76,1.76,0,0,1-1.77,1.76H63.13A1.76,1.76,0,0,1,61.36,103V46.82A10.51,10.51,0,0,1,71.88,36.31Zm-40.36,7C38.75,45,39.25,47.06,40,50l.06.24c2,7.56,2.62,10.85,2,15-.85,5.84-4.56,10.2-11.45,13-9.89,4-18.29-.16-23.85-9.84C2.47,60.7,0,49.82,0,39.82S2.47,18.93,6.82,11.33c5.56-9.68,14-13.79,23.85-9.84,6.89,2.76,10.6,7.12,11.45,13,.6,4.11,0,7.39-2,15l-.06.24c-.79,2.93-1.29,5-1.58,6.67h5.37A10.51,10.51,0,0,1,54.35,46.82V103a1.76,1.76,0,0,1-1.77,1.76H49.11A1.75,1.75,0,0,1,47.34,103V46.82a3.51,3.51,0,0,0-3.51-3.5Z"/></g></g></svg>