<svg xmlns="http://www.w3.org/2000/svg" viewBox="0 0 76.54 120.38"><defs><style>.cls-1{fill:#fff;}</style></defs><title>Asset 8</title><g id="Layer_2" data-name="Layer 2"><g id="Layer_1-2" data-name="Layer 1"><path class="cls-1" d="M62.38,36.5A7.62,7.62,0,0,1,68,36.37c1.31.4,2-3.12,2.47-4.2a16.32,16.32,0,0,0,1.43-8c-.43-4.52-1.55-2.33-5.49-3-1.33-.23-2.67-.33-4-.49.79-2.95-.31-5.34-1.87-7.52-1.71-2.39-4.2-3.19-7.49-2.67.73-1.39,1.25-2.4,1.8-3.41.94-1.75-.18-1.88-1.21-3.6-1.9-3.15-3-1.65-4.09.32-2.61-1.76-4.93-2.22-5.77,1-.1.39-.5.64-.78.93-1.19,1.24-1.86,1.16-2.6-.41-.67-1.41-1.17-2.91-1.88-4.31s-3.33-1-4.77-.55A26.47,26.47,0,0,0,28.19,2.9c-1.63,1-.32,1.24.43,3,.49,1.17,1.13,2.27,1.71,3.4A2.39,2.39,0,0,1,30,12.27c-1.15,1.35-2.26,2.73-3.31,4-1.43-.49-2.6-1-3.8-1.31-6.13-1.8-9.21,0-10.71,6.23,0,.15,0,.3-.07.45-.4,3.78-.79,7.56-1.2,11.34A9.68,9.68,0,0,1,8.74,38.2a23.47,23.47,0,0,0-4.11,6.5c-1.74,4.9-3,10-4.34,15C-.23,61.69,0,73,.76,76.23c2.46,10.12,8.41,18,16.11,24.71,10.67,9.28,23.16,15,36.76,18.5a22.18,22.18,0,0,0,11.74.25c5.15-1.47,8.87-4.2,8.65-10.65a53.48,53.48,0,0,1,.47-7.58c.65-6.1,1.6-12.18,2-18.29.38-5.63-2.82-33.08-9-38.61A21.29,21.29,0,0,1,62.38,36.5Z"/></g></g></svg>