<svg xmlns="http://www.w3.org/2000/svg" viewBox="0 0 111.2 87.74"><defs><style>.cls-1{fill:#fff;}</style></defs><title>Asset 9</title><g id="Layer_2" data-name="Layer 2"><g id="Layer_1-2" data-name="Layer 1"><path class="cls-1" d="M108.56,16.17l-2.14-2.78A33.24,33.24,0,0,0,71.58,1L66.65,2.28c-.12,0-.25.13-.5.13a17,17,0,0,0-17.3,2.77l-27,22.6L3.28,41.67A8.17,8.17,0,0,0,0,48.23a7.85,7.85,0,0,0,3.28,6.56h0l5.43,4a42.24,42.24,0,0,0,25.37,8.46,36.48,36.48,0,0,0,5.31-.38l3-.38C45.44,68.18,59,76,59,85.85a1.94,1.94,0,0,0,1.9,1.89c3,0,6.69-4.8,8.2-6.81a1.7,1.7,0,0,0,0-2.15c-1.39-2-4.8-8.21-3.79-12.62a5.8,5.8,0,0,1,2.91-3.79,2.06,2.06,0,0,0,.75-.76A21.68,21.68,0,0,0,79.15,49.24l2-6.06,9.47-4.8a9.75,9.75,0,0,1,4.29-1h2.9a13.16,13.16,0,0,0,11.87-7.32A12.88,12.88,0,0,0,108.56,16.17Zm-52.89,2L24.11,43.43a2,2,0,0,1-1.14.38,2,2,0,0,1-1.26-3.41L53.27,15.16a1.94,1.94,0,0,1,2.65.25A1.88,1.88,0,0,1,55.67,18.19Z"/></g></g></svg>