<svg xmlns="http://www.w3.org/2000/svg" viewBox="0 0 110.98 99.4"><defs><style>.cls-1{fill:#fff;}</style></defs><title>Asset 6</title><g id="Layer_2" data-name="Layer 2"><g id="Layer_1-2" data-name="Layer 1"><path class="cls-1" d="M104.51,46.22c-9.33-27.78-28.19-31.3-28.19-31.3-3.73-1.87-4.14-2.07-8.7.62S64.3,26.32,64.51,28.81a30.72,30.72,0,0,1-.2,4.14,14.05,14.05,0,0,1-6.91-5C57.29,17.6,58.7,0,58.7,0H52.07s1,16.43.67,27.26A17.76,17.76,0,0,1,46.59,32a22.49,22.49,0,0,1-.11-3.16c.2-2.49,1.45-10.57-3.11-13.27s-5-2.48-8.71-.62c0,0-18.86,3.52-28.18,31.3S-1.81,90.78,7.72,96.16s27.57,3.32,34.41-.83,4.76-12.43,4.55-15.75A74.32,74.32,0,0,1,47.93,65.7c.4-1.75.37-10.29.18-16.65,3.14-3.78,6.45-3.66,6.45-3.66,4-.13,6.79,2.72,8.28,4.79-.16,6.2-.16,13.87.22,15.52A73.5,73.5,0,0,1,64.3,79.58C64.09,82.9,62,91.19,68.86,95.33s24.87,6.22,34.4.83S113.83,74,104.51,46.22Z"/></g></g></svg>