<svg xmlns="http://www.w3.org/2000/svg" viewBox="0 0 128.14 71.98"><defs><style>.cls-1{fill:#fff;}</style></defs><title>Asset 7</title><g id="Layer_2" data-name="Layer 2"><g id="Layer_1-2" data-name="Layer 1"><path class="cls-1" d="M123.39,0a15.66,15.66,0,0,1,4.75.69c-3.66,13.46-20.06,24.81-37.26,32.39a164.34,164.34,0,0,1-25.22,8.71C60.6,43,56,44.19,50.83,44a10.75,10.75,0,0,0-7.1,2.79A21,21,0,0,0,38.44,53a1.63,1.63,0,0,0,.66,2.16,1.61,1.61,0,0,0,2.13-.74,20.11,20.11,0,0,1,4.46-5.19,14.36,14.36,0,0,1,3.08-1.86c-2,14.72-10.86,21.83-20.41,24C18.39,73.55,7.71,70,3.53,63.67c-2.4-4.18-4-10.44-3.42-14.44.88-6.54,2.1-14.34,6.7-21.38C16,13.77,35.91,2.11,75.31,7.59h.39C82.92,6.77,95,4,106,2.06c6-.92,11.72-2,17.38-2.06ZM108.55,9.79a1.56,1.56,0,0,0-.88.49C102.94,15,95.71,17.5,87.16,19S68.76,21.18,59,22.37s-19.44,2.95-27.81,7A37.91,37.91,0,0,0,11.71,50a1.57,1.57,0,0,0,2.94,1.12A34.44,34.44,0,0,1,32.57,32.15c7.83-3.78,17.2-5.53,26.83-6.7s19.47-1.74,28.3-3.33,16.72-4.19,22.17-9.64a1.65,1.65,0,0,0-1.32-2.69Z"/></g></g></svg>