<?xml version="1.0" standalone="no"?>
<!DOCTYPE svg PUBLIC "-//W3C//DTD SVG 20010904//EN"
 "http://www.w3.org/TR/2001/REC-SVG-20010904/DTD/svg10.dtd">
<svg version="1.0" xmlns="http://www.w3.org/2000/svg"
 width="199.000000pt" height="199.000000pt" viewBox="0 0 199.000000 199.000000"
 preserveAspectRatio="xMidYMid meet">
<metadata>
Created by potrace 1.11, written by Peter Selinger 2001-2013
</metadata>
<g transform="translate(0.000000,199.000000) scale(0.100000,-0.100000)"
fill="#000000" stroke="none">
<path d="M908 1945 c-2 -1 -25 -5 -53 -9 -27 -3 -88 -16 -135 -30 -319 -89
-575 -334 -669 -640 -34 -110 -40 -152 -41 -271 -3 -345 197 -667 520 -838
101 -53 180 -79 315 -102 78 -14 275 -14 340 0 86 18 120 27 178 49 238 90
438 260 540 461 232 459 -49 1013 -558 1102 -52 9 -208 9 -265 0 -144 -23
-315 -112 -414 -216 -35 -37 -33 -37 24 -10 109 53 266 58 383 12 197 -77 334
-289 320 -493 -24 -358 -394 -577 -715 -425 -98 46 -141 92 -171 182 -39 118
-50 203 -44 322 11 213 92 396 239 543 264 264 673 305 985 98 l48 -32 -45 42
c-120 112 -289 198 -466 235 -65 14 -306 29 -316 20z"/>
</g>
</svg>
